<?xml version="1.0" encoding="utf-8"?>
<!-- Generator: Adobe Illustrator 27.7.0, SVG Export Plug-In . SVG Version: 6.00 Build 0)  -->
<svg version="1.1" id="Layer_1" xmlns="http://www.w3.org/2000/svg" xmlns:xlink="http://www.w3.org/1999/xlink" x="0px" y="0px"
	 viewBox="0 0 1080 1080" style="enable-background:new 0 0 1080 1080;" xml:space="preserve">
<style type="text/css">
	.st0{fill:#fff;}
</style>
<g>
	<g>
		<path class="st0" d="M838.07,944.33"/>
		<path class="st0" d="M161.68,883.32c-0.93-6.14-3.48-8.34-7.76-8.34c-4.05,0-7.53,2.89-7.53,6.72c0,5.09,4.63,7.41,14.01,11.46
			c18.87,8.11,23.62,14.94,23.62,26.17c0,16.56-11.35,26.29-29.87,26.29c-18.64,0-30.92-9.73-30.92-28.14v-1.85h21.77
			c0.12,7.06,3.59,11.69,9.03,11.69c4.51,0,8.22-3.59,8.22-8.22c0-6.83-9.5-9.84-17.25-12.97c-14.01-5.68-20.38-13.09-20.38-24.2
			c0-14.59,14.12-25.24,29.87-25.24c5.67,0,10.65,1.27,15.17,3.59c9.15,4.75,13.55,11.58,13.66,23.04H161.68z"/>
		<path class="st0" d="M208.22,944v-66.46h-16.91v-19.22h55.58v19.22h-16.79V944H208.22z"/>
		<path class="st0" d="M255.47,903.12c0-26.51,19.1-46.43,45.16-46.43c25.01,0,45.27,19.33,45.27,43.88
			c0,25.36-19.68,45.04-44.23,45.04C277.81,945.62,255.47,928.48,255.47,903.12z M324.01,901.27c0-13.43-9.61-25.36-23.39-25.36
			c-13.66,0-23.27,11.46-23.27,25.01c0,14.12,9.61,25.47,23.62,25.47C314.52,926.4,324.01,914.93,324.01,901.27z"/>
		<path class="st0" d="M402.16,944l-19.8-27.67h-0.23V944h-20.96v-85.68h28.02c8.92,0,15.75,1.16,20.27,3.13
			c9.26,4.17,15.75,14.24,15.75,26.4c0,13.55-8.1,24.66-21.31,26.98L427.17,944H402.16z M390.24,901.39
			c8.68,0,14.01-4.05,14.01-12.27c0-7.41-5.56-11.58-13.78-11.58h-8.34v23.85H390.24z"/>
		<path class="st0" d="M439.1,944v-85.68h29.18c10.66,0,19.11,1.85,25.13,5.21c12.16,6.95,19.8,20.15,19.8,37.63
			c0,28.25-16.67,42.84-43.42,42.84H439.1z M470.82,924.78c12.62,0,20.49-7.87,20.49-23.5c0-15.28-7.76-23.74-20.38-23.74h-9.96
			v47.24H470.82z"/>
		<path class="st0" d="M567.41,944v-66.46h-16.91v-19.22h55.58v19.22H589.3V944H567.41z"/>
		<path class="st0" d="M618.36,944v-85.68h21.88V944H618.36z"/>
		<path class="st0" d="M712.49,944l-32.89-52.34l0.58,52.34h-20.96v-85.68h18.87l33.35,54.19l-0.92-54.19h20.96V944H712.49z"/>
		<path class="st0" d="M749.43,944v-85.68h29.18c10.66,0,19.11,1.85,25.13,5.21c12.16,6.95,19.8,20.15,19.8,37.63
			c0,28.25-16.67,42.84-43.42,42.84H749.43z M781.15,924.78c12.62,0,20.49-7.87,20.49-23.5c0-15.28-7.76-23.74-20.38-23.74h-9.96
			v47.24H781.15z"/>
		<path class="st0" d="M839.97,944v-85.68h47.59v19.22h-26.63v13.31h25.82v19.22h-25.82v14.71h26.63V944H839.97z"/>
		<path class="st0" d="M926.87,945.12c-12.06,0-21.12-8.69-21.12-20.55c0-11.38,8.8-20.6,19.97-20.6c11.54,0,20.49,8.96,20.49,20.12
			C946.21,934.95,938.41,945.12,926.87,945.12z M926.03,913.93c-6.11,0-11.54,4.37-11.54,10.64c0,6.22,5.22,10.59,11.38,10.59
			c6.43,0,11.59-4.37,11.59-10.75C937.46,918.25,932.24,913.93,926.03,913.93z"/>
		<path class="st0" d="M925.5,857.19c10.48,0,20.76,7.69,20.76,20.81c0,11.54-9.01,20.7-20.44,20.7c-11.8,0-20.07-9.53-20.07-20.86
			c0-8.8,5.95-17.28,13.8-19.49l0,11.17c-3.21,1.84-5.06,4.85-5.06,8.59c0,6.27,5.06,10.64,11.33,10.64
			c6.48,0,11.69-4.11,11.69-10.69c0-4.64-2.27-8.11-6.27-9.32l0,11.64h-7.95l0-23.18H925.5z"/>
		<g>
			<path class="st0" d="M169.34,1060.57l-23.61-37.39h-0.23v37.39h-22.09V974.1h22.09v38.91h0.23l24.42-38.91h23.14l-28.63,43.12
				l30.5,43.35H169.34z"/>
			<path class="st0" d="M207.77,1060.57V974.1h22.09v67.07h25.59v19.4H207.77z"/>
			<path class="st0" d="M323.34,1060.57l-4.21-12.5H289.1l-4.56,12.5h-23.72l34.71-86.47h17.41l34.36,86.47H323.34z M304.41,1001.09
				l-0.35-0.12l-8.88,29.56h18.11L304.41,1001.09z"/>
			<path class="st0" d="M370.08,1060.57V993.5h-17.06v-19.4h56.09v19.4h-16.94v67.07H370.08z"/>
			<path class="st0" d="M462.86,1060.57l-19.98-27.93h-0.23v27.93h-21.15V974.1h28.28c9,0,15.89,1.17,20.45,3.16
				c9.35,4.2,15.89,14.37,15.89,26.64c0,13.67-8.18,24.89-21.5,27.23l23.49,29.45H462.86z M450.82,1017.57
				c8.76,0,14.14-4.09,14.14-12.39c0-7.48-5.61-11.69-13.91-11.69h-8.41v24.07H450.82z"/>
			<path class="st0" d="M501.3,1060.57V974.1h48.03v19.4h-26.87v13.44h26.06v19.4h-26.06v14.84h26.87v19.4H501.3z"/>
			<path class="st0" d="M614.75,1060.57l-23.6-37.39h-0.23v37.39h-22.09V974.1h22.09v38.91h0.23l24.42-38.91h23.14l-28.63,43.12
				l30.5,43.35H614.75z"/>
			<path class="st0" d="M653.2,1060.57V974.1h22.09v67.07h25.59v19.4H653.2z"/>
			<path class="st0" d="M757.08,974.1h22.09v52.94c0,9-1.4,15.77-4.32,20.45c-5.72,9.23-15.42,14.72-28.51,14.72
				c-7.25,0-13.44-1.4-18.46-4.32c-10.17-5.96-15.07-14.02-15.07-30.73V974.1h22.09v52.7c0,10.75,3.39,16.01,11.22,16.01
				c7.48,0,10.99-3.74,10.99-15.89V974.1z"/>
			<path class="st0" d="M798.09,1060.57V974.1h27.69c6.2,0,10.75,0.35,13.79,1.05c9.82,2.22,17.99,9.82,17.99,21.5
				c0,7.36-3.5,13.91-10.05,17.53c9.47,3.27,14.26,10.17,14.26,20.1c0,8.3-3.51,15.89-10.05,20.45c-6.78,4.79-11.22,5.84-24.89,5.84
				H798.09z M828,1006.93c5.49,0,8.42-2.33,8.42-6.89s-2.81-6.55-8.3-6.55h-8.88v13.44H828z M830.57,1041.17
				c6.2,0,10.05-2.69,10.05-8.3c0-5.02-3.39-7.48-9.93-7.48h-11.45v15.77H830.57z"/>
			<path class="st0" d="M877.19,1060.57V974.1h27.69c6.2,0,10.75,0.35,13.79,1.05c9.82,2.22,17.99,9.82,17.99,21.5
				c0,7.36-3.5,13.91-10.05,17.53c9.47,3.27,14.26,10.17,14.26,20.1c0,8.3-3.51,15.89-10.05,20.45c-6.78,4.79-11.22,5.84-24.89,5.84
				H877.19z M907.11,1006.93c5.49,0,8.42-2.33,8.42-6.89s-2.81-6.55-8.3-6.55h-8.88v13.44H907.11z M909.68,1041.17
				c6.2,0,10.05-2.69,10.05-8.3c0-5.02-3.39-7.48-9.93-7.48h-11.45v15.77H909.68z"/>
		</g>
	</g>
	<g>
		<g>
			<path class="st0" d="M903.24,645.84l2.18-5.26l-0.09-0.05c-0.91,1.65-1.8,3.31-2.73,4.96L903.24,645.84z"/>
			<path class="st0" d="M534.75,17.8c-1.27,0-2.55,0.05-3.83,0.06c1.51-0.02,3.03-0.05,4.54-0.06
				C535.23,17.81,534.98,17.8,534.75,17.8z"/>
			<path class="st0" d="M523.45,18.01c0.33-0.01,0.66-0.03,0.99-0.04C524.1,17.98,523.77,17.99,523.45,18.01z"/>
			<path class="st0" d="M538.07,17.83c1.21,0.01,2.41,0.03,3.62,0.05C540.46,17.86,539.27,17.84,538.07,17.83z"/>
		</g>
		<path class="st0" d="M701.25,417.25c-2.43,0.34-7.51,0.69-8.22,0.68c-1.26-0.01-2.93-0.65-3.83-1.02
			c-0.99-0.41-2.88-1.45-3.81-1.98c-1.17-0.67-3.43-2.12-4.55-2.85c-1.2-0.78-3.58-2.36-4.72-3.22c-1-0.75-3.01-2.26-3.83-3.2
			c-1.04-1.18-2.52-3.97-3.37-5.29c-0.81-1.27-2.64-3.67-3.51-4.89c-1.05-1.47-3.11-4.46-4.21-5.9c-2.17-2.84-6.79-8.31-8.74-11.31
			c-1.22-1.87-3.2-5.9-4.25-7.87c-1.15-2.15-3.46-6.46-4.77-8.52c-1.81-2.84-6.02-8.1-7.89-10.91c-1.16-1.74-3.32-5.34-4.35-7.16
			c-1.04-1.83-2.99-5.58-3.94-7.46c-0.6-1.18-1.62-3.66-2.35-4.77c-0.58-0.89-2.04-2.46-2.75-3.26c-0.57-0.64-1.77-1.88-2.46-2.4
			c-1.04-0.78-3.33-2.02-4.52-2.54c-1.17-0.52-3.61-1.3-4.86-1.6c-1.09-0.26-3.31-0.59-4.43-0.7c-1.26-0.12-3.81-0.29-5.07-0.17
			c-2,0.18-5.93,1.11-7.86,1.68c-1.71,0.51-5.02,1.87-6.67,2.57c-1.99,0.85-7.82,3.66-7.82,3.66s-7.04,3.94-9.51,5.01
			c-1.83,0.79-5.65,1.94-7.48,2.73c-2.55,1.1-9.93,4.98-9.93,4.98s-10.39,4.81-13.64,6.8c-2.17,1.33-6.14,4.56-8.24,6.01
			c-1.33,0.92-3.9,2.96-5.4,3.57c-0.96,0.39-3.04,0.76-4.08,0.8c-0.48,0.02-1.44-0.11-1.91-0.22c-0.63-0.15-1.88-0.54-2.43-0.88
			c-0.93-0.58-3.16-3.04-3.16-3.04s-2.01-2.27-2.57-3.11c-0.77-1.14-2-3.6-2.61-4.83c-0.92-1.84-3.44-7.49-3.44-7.49l-2.64-6.82
			l-3.46-6.93l-4.58-10.96l-2.19-4.67c0,0-1.27-2.52-1.41-3.44c-0.08-0.5,0.06-1.53,0.17-2.02c0.59-2.72,2.57-7.96,3.78-10.46
			c1.39-2.87,4.83-8.25,6.25-11.1c0.54-1.08,1.52-3.28,1.95-4.41c0.33-0.89,0.88-2.71,1.14-3.62c0.45-1.6,1.18-4.86,1.75-6.42
			c0.5-1.38,1.86-3.98,2.44-5.32c0.5-1.15,1.31-3.51,1.76-4.68c0.39-1,1.21-3,1.61-4c0.38-0.94,1.5-3.77,1.5-3.77l1.44-4l1.9-4.63
			l3.19-7.8c0,0,3.64-6.98,4.6-9.42c1.35-3.43,4.29-14.12,4.29-14.12s4.17-13.46,5.95-17.81c1.28-3.13,5.93-12.14,5.93-12.14l1.24-2
			l6.61-9.04c0,0,2.46-2.11,3.17-2.93c0.46-0.53,1.61-2.3,1.61-2.3s1.05-1.94,1.34-2.62c0.26-0.6,0.68-1.93,0.51-2.56
			c-0.05-0.19-0.38-0.45-0.53-0.57c-3.29-2.56-14.62-8.04-14.62-8.04c-0.37,0.67-0.72,1.38-0.94,1.85c-0.39,0.85-0.99,2.63-1.3,3.52
			c-0.29,0.85-0.81,2.57-1.11,3.42c-0.6,1.69-1.94,5.03-2.68,6.66c-0.78,1.7-2.56,5-3.43,6.66c-0.71,1.37-2.05,4.15-2.87,5.46
			c-1.19,1.91-5.3,7.26-5.3,7.26l-2.56,2.98c0,0-7.62,7.89-10.07,10.61c-1.17,1.3-3.55,3.86-4.53,5.31
			c-1.76,2.59-4.37,8.33-5.58,11.22c-1.12,2.68-3.77,11.01-3.77,11.01s-2.12,6.4-3.06,8.45c-0.52,1.13-2.44,4.33-2.44,4.33
			s-3.01,5.09-3.98,6.81c-0.79,1.39-2.21,4.28-3.11,5.6c-0.43,0.63-4.06,6.56-4.52,7.17c-4.11,5.39-6.46,11.16-9.97,13.09
			c0,0-2.74,2.18-5.61,2.18s-3.4,0.14-4.36-0.86c-0.11-0.11-0.86-0.73-1.08-1.86c-0.29-1.5-0.25-4.15,0.13-5.63
			c0.51-1.97,1.1-3.23,1.54-4.28c0.77-1.84,1.99-4.37,3.12-5.82c0.6-0.77,3.44-3.44,4.37-4.26c0.4-0.35,0.86-1.38,0.95-1.9
			c0.09-0.54-0.08-1.65-0.25-2.16c-0.26-0.76-1.22-2.09-1.68-2.76c-0.94-1.39-2.47-4.44-3.64-5.65c-0.52-0.54-1.87-1.28-2.39-1.83
			c-0.28-0.3-0.72-1.09-0.7-1.5c0.04-0.93,1.45-2.49,1.49-3.43c0.02-0.32-0.16-1.01-0.39-1.23c-0.61-0.58-3.3-0.97-4.14-1.07
			c-2.44-0.31-6.47-0.2-8.81-0.94c-2.64-0.83-6.82-2.87-8.26-4.77c-0.42-0.55-0.77-2.18-0.76-2.67c0.01-0.52-0.23-1.58-0.53-2.01
			c-0.47-0.66-2.69-1.81-2.69-1.81s-2.5-1.73-5.6-1.88c-1.28-0.07-3.79,0.72-5.01,1.12c-1.63,0.54-4.71,2.09-6.22,2.91
			c-1.6,0.88-6.16,3.91-6.16,3.91s-4.05,3.44-5.1,4.85c-0.9,1.19-2.75,5.28-2.75,5.28l-4.55,11.04c0,0-1.39,4.49-0.62,7.19
			c1.24,4.33,2.41,5.59,2.41,5.59s4.43,4.76,6.2,6.01c1.94,1.37,6.32,3.32,8.53,4.2c1.98,0.79,6.13,1.85,8.15,2.53
			c0.9,0.3,2.97,0.56,3.58,1.29c0.69,0.83,0.56,3.21,0.56,4.29c0.01,1.65-0.59,5.03-1.43,6.45c-3.33,5.29-7.84,9.77-13.76,13.3
			c-0.95,0.81-3.42,1.53-4.55,2.07c-0.93,0.44-2.83,1.26-3.68,1.85c-0.81,0.57-2.26,1.96-2.88,2.73c-0.82,1-2.18,3.23-2.73,4.4
			c-0.61,1.3-1.36,4.09-1.7,5.48c-0.41,1.71-1.07,5.18-1.23,6.93c-0.14,1.48-1.78,15.11-2.11,16.56c-0.75,3.28-2.7,11.63-2.7,11.63
			c-0.3,1.6-1.97,6.2-1.97,6.2l-2.18,6.53l-1.3,4.85l-2.17,6.09l-1.01,2.81l-0.51,1.63l-0.36,1.71l0.05,1.53l0.45,1.4l0.63,1.25
			l0.76,1.07l0.83,1.44l1.33,1.87l1.02,1.44l4.71,7.52c0,0,3.72,5.58,5.08,7.35c1.71,2.24,5.34,6.56,7.28,8.6
			c1.8,1.9,5.74,5.39,7.64,7.2c1.9,1.82,5.67,5.51,7.7,7.18c1.75,1.44,5.49,4.01,7.33,5.33c0.67,0.48,2.2,1.25,2.71,1.91
			c0.63,0.82,1.03,2.92,1.45,3.86c0.13,0.3,0.6,1.17,0.6,1.17l-0.43,1.59c0,0-1.29,6.43-1.46,8.61c-0.16,2.07-0.06,6.23,0.14,8.3
			c0.19,1.97,0.9,5.88,1.39,7.8c0.35,1.37,1.3,4.03,1.81,5.34c0.54,1.4,1.86,4.26,3.04,5.2c1.15,0.91,4.17,1.42,5.61,1.73
			c1.73,0.37,5.27,0.82,7.04,0.89c1.77,0.07,5.34,0.02,7.07-0.35c1.45-0.31,4.4-1.2,5.53-2.15c0.62-0.52,1.36-2.03,1.66-2.78
			c1.28-3.17,2.44-9.97,3.13-13.33c1.15-5.58,5.14-22.22,5.14-22.22s0.79,4.15,1.21,5.49c0.41,1.32,1.59,3.87,2.39,5
			c1.63,2.27,5.85,6.04,8.01,7.81c3.25,2.67,10.71,6.72,13.85,9.52c1.54,1.37,4.08,4.67,5.21,6.39c2.11,3.25,5.53,10.24,7.03,13.82
			c1.27,3.02,3.29,9.25,4.16,12.4c0.4,1.45,0.98,4.45,0.86,5.95c-0.14,1.7-1.52,4.9-2.07,6.51c-0.91,2.68-3.07,7.91-3.85,10.63
			c-0.66,2.31-1.52,7.05-1.99,9.41c-0.27,1.39-0.77,4.17-0.97,5.57c-0.12,0.84-0.31,2.53-0.36,3.37c-0.13,1.95-0.23,5.85-0.2,7.8
			c0.02,0.98,0.18,2.93,0.23,3.9c0.06,0.99,0.11,2.96,0.21,3.95c0.13,1.25,0.6,3.73,0.76,4.98c0.29,2.33,0.65,7.01,0.88,9.35
			c0.32,3.31,1.05,9.91,1.35,13.21c0.23,2.54,0.6,7.64,0.79,10.19c0.13,1.76,0.34,5.27,0.53,7.02c0.31,3.01,1.21,9,1.31,12.02
			c0.06,1.86-0.35,5.57-0.33,7.42c0.03,2.2,1.02,6.61,0.62,8.78c-0.22,1.2-1.56,3.33-2.08,4.43c-0.78,1.66-2.53,4.91-3.11,6.65
			c-0.56,1.68-1.42,5.15-1.46,6.91c-0.03,1.19,0.48,3.54,0.76,4.7c0.36,1.53,1.39,4.52,1.88,6.01c0.99,3.02,3.2,8.98,4.14,12.01
			c0.82,2.63,2.23,7.97,3.12,10.59c0.62,1.85,1.97,5.51,2.78,7.28c0.52,1.13,1.7,3.33,2.36,4.39c0.58,0.94,1.94,2.73,2.76,3.47
			c0.85,0.76,2.76,2.14,3.87,2.45c1.17,0.33,3.64-0.04,4.85-0.09c1.02-0.04,3.06-0.03,4.06-0.23c0.99-0.2,2.84-1.02,3.79-1.36
			c0.85-0.3,2.6-0.92,3.26-1.53c0.67-0.62,1.52-2.33,1.81-3.2c0.21-0.65,0.26-2.04,0.34-2.72c0.11-1.01,0.39-3.04,0.39-4.07
			c-0.01-1.1-0.23-3.3-0.49-4.37c-1.66-6.61-7.26-19.12-10.08-25.33c-2.8-6.16-8.54-18.64-9.46-25.34
			c-0.88-6.43,1.64-19.44,2.97-25.79c1.62-7.77,6.97-22.76,9.11-30.4c0.68-2.44,2.04-7.32,2.57-9.79c0.28-1.34,0.74-4.05,0.88-5.41
			c0.08-0.81,0.13-2.44,0.14-3.26c0.01-1.03-0.07-3.1-0.08-4.14c-0.02-2.49-0.15-7.47,0.04-9.95c0.23-3.11,1.34-9.27,2.08-12.3
			c0.66-2.71,2.33-8.05,3.38-10.64c0.94-2.34,4.47-9.06,4.47-9.06l1.4-5.19c0,0,0.68-4.64,0.58-6.2c-0.14-2.18-1.28-6.43-1.9-8.52
			c-1.08-3.64-4.35-10.57-5.29-14.25c-0.62-2.42-1.2-7.39-1.43-9.87c-0.27-2.86-0.38-8.62-0.84-11.46
			c-0.46-2.86-2.22-8.39-2.82-11.22c-0.56-2.64-1.54-7.95-1.85-10.63c-0.15-1.27-0.44-3.82-0.3-5.09c0.12-1,0.54-3.06,1.16-3.85
			c0.76-0.97,3.25-1.76,4.23-2.5c1.49-1.13,4.04-3.89,5.43-5.15c2.22-2.02,6.8-5.89,9.03-7.89c2.17-1.95,6.54-5.83,8.58-7.91
			c1.9-1.93,5.42-6.04,7.2-8.08c1.88-2.16,5.61-6.49,7.42-8.71c1.71-2.09,4.93-6.43,6.64-8.51c1.36-1.65,4.2-4.85,5.46-6.57
			c0.79-1.08,2.02-3.48,2.89-4.49c0.51-0.59,1.62-1.73,2.33-2.05c0.47-0.22,1.55-0.33,2.06-0.28c0.94,0.09,2.73,0.8,3.58,1.2
			c0.55,0.26,1.6,0.89,2.05,1.3c0.58,0.52,1.48,1.81,1.91,2.46c0.71,1.06,1.91,3.32,2.5,4.45c0.57,1.09,1.65,3.29,2.14,4.41
			c0.4,0.91,0.97,2.82,1.45,3.69c0.48,0.87,1.71,2.42,2.33,3.19c0.87,1.09,2.64,3.26,3.64,4.23c0.92,0.9,3,2.43,4.01,3.23
			c1.06,0.84,3.11,2.6,4.25,3.32c1.09,0.69,3.48,1.71,4.61,2.33c2.07,1.12,6.21,3.42,8.16,4.74c1.95,1.31,5.57,4.33,7.43,5.77
			c1.14,0.88,3.43,2.62,4.56,3.52c1.09,0.86,3.28,2.56,4.29,3.52c0.94,0.89,2.72,2.78,3.49,3.82c1.27,1.73,4.32,7.41,4.32,7.41
			l1.42,2.97l2.06,4.8c0,0,2.1,4.67,2.69,6.28c0.57,1.54,1.38,4.74,1.95,6.29c0.61,1.65,2.09,4.89,2.44,6.62
			c0.17,0.86,0.12,2.64,0.4,3.47c0.37,1.07,1.52,3.12,2.37,3.87c0.64,0.57,2.27,1.23,3.11,1.43c0.77,0.18,2.38,0.27,3.14,0.08
			c1.76-0.44,4.91-2.44,6.29-3.61c1.06-0.9,3.57-2.97,4.54-3.96c1.44-1.46,3.73-4.27,5.26-5.62c1.62-1.43,4.51-4.65,6.13-6.08
			c1.37-1.22,4.26-3.47,5.73-4.57c1.92-1.43,5.81-4.22,7.86-5.46c1.08-0.65,3.36-1.7,4.46-2.31c1.21-0.67,3.58-2.11,4.79-2.8
			c1.51-0.86,4.48-2.68,6.06-3.39l6.18-2.64l-1.37-5.05c0,0-6.06-0.51-8.64-0.43c-2.52,0.08-5.67,1.25-8.13,1.8
			c-2.47,0.55-6.72,1.72-9.16,2.4C710.1,415.55,706.72,416.48,701.25,417.25z M452.38,429.15c-1.12,0.09-3.38-0.03-4.49-0.2
			c-0.47-0.07-1.36-0.38-1.82-0.48c-0.75-0.16-3.02-0.49-3.02-0.49l-5.76-12.74c0,0-8.79-12.62-11.72-16.83
			c-2.99-4.29-11.94-17.15-11.94-17.15c-0.9-1.28-4.3-4.71-3.96-5.58c0,0,2.86-10.97,3.98-14.7c1.35-4.51,2.65-9.56,3.83-12.65
			c0.19-0.5,5.84-11.16,8.47-11.04c2.74,0.13,7.45,9.5,7.45,9.5l22.18,35.78c1.69,1.92,6.15,8.19,6.15,8.19l2.39,4.46l1.19,3.67
			l1.97,16.16l1.16,9.58c0,0-8.06,3.23-10.9,3.75L452.38,429.15z"/>
		<path class="st0" d="M896.93,642.31l-111.61-62.38l-12.05,206.24c21.36-14.64,41.54-31.32,60.24-50.03
			c27.38-27.38,50.51-57.86,69.09-90.65c0,0,0,0,0,0L896.93,642.31z"/>
	</g>
	<g>
		<polygon class="st0" points="558.08,18.38 558.08,18.38 558.08,18.38 		"/>
	</g>
	<g>
		<path class="st0" d="M563.73,18.73l-0.31,9.26c0,0,0,0,0.01,0l-4.23,126.11l145.55,34.04l41.83-114.01
			C691.09,41.96,628.84,22.94,563.73,18.73z"/>
		<path class="st0" d="M903.35,234.59l0.99,0.25c-0.35-0.61-0.71-1.22-1.06-1.83l0.09-0.25l-0.17,0.1c-0.5-0.89-1.04-1.75-1.55-2.63
			c0.03,0.01,0.07,0.01,0.1,0.02c-18.43-32.24-41.27-62.23-68.24-89.19c-24.82-24.82-52.2-46.14-81.53-63.75L710.8,189.56
			L903.35,234.59z"/>
		<polygon class="st0" points="896.23,238.55 711.24,195.48 728.09,331.07 		"/>
		<polygon class="st0" points="725.18,332.68 725.18,332.68 725.18,332.68 		"/>
		<polygon class="st0" points="564.78,161.37 721.59,328.85 704.83,193.98 		"/>
	</g>
	<g>
		<g>
			<polygon class="st0" points="841.07,404.32 748.03,420.58 783.25,565.4 			"/>
			<polygon class="st0" points="898.8,243.48 727.83,337.56 746.54,414.45 843.48,397.62 			"/>
		</g>
		<path class="st0" d="M954.92,478.1c1.21-13.05,1.84-26.23,1.84-39.5c0-70.44-17.23-138.22-49.64-198.59
			c-0.01,0.03-0.02,0.07-0.03,0.11c-0.26-0.5-0.51-1.01-0.77-1.51l-0.29,0.86l-56.49,157.97l103.9,94.04
			C954,487.03,954.51,482.57,954.92,478.1z"/>
		<path class="st0" d="M786.36,574.14l118.97,66.39c24.04-43.82,40-91.64,47.14-141.61L847.3,403.73L786.36,574.14z"/>
	</g>
</g>
<g>
	<path class="st0" d="M381.2,57.19c0.01,0,0.01-0.01,0.02-0.01l172.44,94.61l4.38-130.57v-2.77c0,0-0.01,0-0.01,0v-0.08
		c-5.44-0.28-10.91-0.43-16.39-0.5c-1.21-0.02-2.41-0.04-3.62-0.05c-0.7,0-1.4-0.03-2.1-0.03c-0.17,0-0.34,0.01-0.51,0.01
		c-1.52,0-3.03,0.04-4.54,0.06c-2.16,0.03-4.33,0.05-6.49,0.1c-0.33,0.01-0.66,0.03-0.99,0.04
		c-53.31,1.55-104.92,12.96-152.74,33.37L381.2,57.19z"/>
</g>
</svg>
